<svg width="1309" height="727" xmlns="http://www.w3.org/2000/svg"><path d="M259.322 23.5L279.038 47l18.59-.2 18.59-.2 3.38-21.5 3.38-21.5h265.33c290.229 0 271.526-.3 308.143 5.6 87.88 14.3 178.579 53.4 255.189 110 16.45 12.1 45.41 37.1 59.83 51.5 36.73 36.8 67.03 80.4 81.68 117.9 20.73 52.7 21.07 97.7 1.35 149-28.95 74.9-101.29 151.9-194.69 207.2-22.87 13.6-36.5 20.6-62.53 32.3-67.033 30.2-129.562 45.7-197.162 49-23.21 1.1-448.864 1.2-492.353.1l-24.787-.6-2.478-17.5c-1.352-9.6-3.042-21.2-3.831-25.8l-1.239-8.2h-41.236l-18.928 23.6-19.041 23.6-86.19-.6c-47.432-.4-89.457-.9-93.4-1.3-5.746-.4-7.887-1.1-10.816-3.5-20.055-15.6-35.378-90.2-42.25-205.8-4.958-83.9-4.732-194.9.563-291.5C10.667 100.8 27.68 15.9 47.058 4.7c2.366-1.4 10.478-1.8 60.502-2.6 31.659-.5 74.36-1.2 94.865-1.5l37.18-.6 19.717 23.5z"/></svg>