<svg width="30" height="31" xmlns="http://www.w3.org/2000/svg"><path d="M29.363 23.184l-6.861-6.86a4.35 4.35 0 00-5.004-.815l-6.246-6.246V5.625L3.752 0 .003 3.75l5.626 7.5h3.638l6.246 6.245c-.797 1.629-.54 3.65.814 5.004l6.861 6.86a2.178 2.178 0 003.088 0l3.088-3.087c.85-.855.85-2.238 0-3.088zm-9.926-10.001c1.659 0 3.217.644 4.389 1.816l1.136 1.137a8.293 8.293 0 002.567-1.729 8.426 8.426 0 002.22-8.009.701.701 0 00-1.177-.322l-4.36 4.359-3.978-.662-.662-3.978 4.36-4.36a.707.707 0 00-.335-1.183 8.44 8.44 0 00-8.003 2.22c-1.67 1.67-2.455 3.873-2.414 6.07l4.81 4.81c.475-.11.967-.17 1.447-.17zm-6.087 4.804l-3.322-3.322-8.93 8.935a3.748 3.748 0 000 5.303 3.749 3.749 0 005.303 0l7.242-7.242c-.446-1.166-.58-2.438-.293-3.674zm-9.597 9.668a1.41 1.41 0 01-1.406-1.407c0-.779.626-1.406 1.406-1.406a1.407 1.407 0 010 2.812z"/></svg>