<svg viewBox="0 0 1706.667 1706.667" xmlns="http://www.w3.org/2000/svg" xmlns:xlink="http://www.w3.org/1999/xlink"><style>:root&gt;svg{display:none}:root&gt;svg:target{display:block}</style><svg viewBox="0 0 30 30" id="ar-l" xmlns="http://www.w3.org/2000/svg"><path d="M20 15.5L30 30 0 15.5 30 0 20 15.5z"/></svg><svg viewBox="0 0 30 30" id="ar-r" xmlns="http://www.w3.org/2000/svg"><path d="M10 14.5L0 0l30 14.5L0 30l10-15.5z"/></svg><svg viewBox="0 0 1309 727" id="bul" xmlns="http://www.w3.org/2000/svg"><path d="M259.322 23.5L279.038 47l18.59-.2 18.59-.2 3.38-21.5 3.38-21.5h265.33c290.229 0 271.526-.3 308.143 5.6 87.88 14.3 178.579 53.4 255.189 110 16.45 12.1 45.41 37.1 59.83 51.5 36.73 36.8 67.03 80.4 81.68 117.9 20.73 52.7 21.07 97.7 1.35 149-28.95 74.9-101.29 151.9-194.69 207.2-22.87 13.6-36.5 20.6-62.53 32.3-67.033 30.2-129.562 45.7-197.162 49-23.21 1.1-448.864 1.2-492.353.1l-24.787-.6-2.478-17.5c-1.352-9.6-3.042-21.2-3.831-25.8l-1.239-8.2h-41.236l-18.928 23.6-19.041 23.6-86.19-.6c-47.432-.4-89.457-.9-93.4-1.3-5.746-.4-7.887-1.1-10.816-3.5-20.055-15.6-35.378-90.2-42.25-205.8-4.958-83.9-4.732-194.9.563-291.5C10.667 100.8 27.68 15.9 47.058 4.7c2.366-1.4 10.478-1.8 60.502-2.6 31.659-.5 74.36-1.2 94.865-1.5l37.18-.6 19.717 23.5z"/></svg><svg viewBox="0 0 405.272 405.272" id="check" xmlns="http://www.w3.org/2000/svg"><path d="M393.401 124.425L179.603 338.208c-15.832 15.835-41.514 15.835-57.361 0L11.878 227.836c-15.838-15.835-15.838-41.52 0-57.358 15.841-15.841 41.521-15.841 57.355-.006l81.698 81.699L336.037 67.064c15.841-15.841 41.523-15.829 57.358 0 15.835 15.838 15.835 41.514.006 57.361z"/></svg><svg viewBox="0 0 512 512" id="color" xmlns="http://www.w3.org/2000/svg"><!--! Font Awesome Pro 6.0.0 by @fontawesome - https://fontawesome.com License - https://fontawesome.com/license (Commercial License) Copyright 2022 Fonticons, Inc.--><path d="M512 255.1c0 1.8-.9 2.7-.9 3.6.5 36.5-32.7 60.4-69.2 60.4H344c-26.5 0-48 22.4-48 48.9 0 3.4.4 6.7 1 9.9 2.2 10.2 6.5 19.2 10.9 29.9 6 13.8 12.1 27.5 12.1 42 0 31.9-21.6 60.7-53.4 62-3.5.1-7.1.2-10.6.2C114.6 512 0 397.4 0 256S114.6 0 256 0s256 114.6 256 256v-.9zm-416 0c-17.67 0-32 15.2-32 32 0 18.6 14.33 32 32 32 17.7 0 32-13.4 32-32 0-16.8-14.3-32-32-32zm32-64c17.7 0 32-13.4 32-32 0-16.8-14.3-32-32-32s-32 15.2-32 32c0 18.6 14.3 32 32 32zm128-128c-17.7 0-32 15.23-32 32 0 18.6 14.3 32 32 32s32-13.4 32-32c0-16.77-14.3-32-32-32zm128 128c17.7 0 32-13.4 32-32 0-16.8-14.3-32-32-32s-32 15.2-32 32c0 18.6 14.3 32 32 32z"/></svg><svg version="1.0" viewBox="0 0 1280 1280" id="gear" xmlns="http://www.w3.org/2000/svg"><path d="M615 .6c-16.8 1.2-40.6 3.7-55.8 5.9L542 8.9l-5.4 5.8c-2.9 3.2-9.3 10.2-14.2 15.6l-9 9.8-1.3 16.2c-3.5 45.2-10.1 74.8-21.9 98-4.9 9.7-6.9 12.4-14.7 20.3-14.3 14.4-28.5 20.4-48 20.4-29.5 0-59.4-16.1-109.1-58.5l-13.2-11.2-21-.8-21.1-.7-8.3 6.3c-48.3 36.5-90.6 78.3-125.7 123.9l-7.3 9.4.6 13.6c.4 7.4.9 17 1.2 21.3l.6 7.8 9.7 11.2c32.1 37 50 64.2 57.6 87.7 4 12.2 4.6 28.4 1.6 39.5-3.5 12.8-8.3 20.8-18.1 30.5-4.7 4.7-11.1 10-14.2 11.8-14.5 8.6-34.8 15.3-59.3 19.7-13.9 2.5-49.9 6.5-58.3 6.5-4.3 0-4.9.4-20.2 14.5L7.2 542l-1.1 7.7c-8.1 55.9-7.9 126 .5 185.5.6 4.6 1.2 5.2 16.1 18.7 11.5 10.5 16.3 14.2 18.6 14.5 1.8.2 12.5 1.2 23.8 2 43.2 3.4 68.4 8.9 90.4 19.6 16.6 8.1 27.6 18.9 34 33.5 7.4 16.7 7.4 37.4-.1 57.2-8.7 23.1-28.1 52.1-57.1 85.5l-8.4 9.7-1 21.1-1 21.2 7.1 9.4c30.5 40.1 73 81.7 121.3 118.7l12.7 9.8 21.1-.7 21.2-.7 11.6-9.9c36.3-31 63.7-48.3 87.6-55.4 7.7-2.3 10.9-2.7 22-2.8 12 0 13.7.2 21.8 3.1 29.6 10.4 46.3 33.8 56.1 78.3 3.8 17.7 8.6 55.8 8.6 69.3 0 3.6 1 5 14.4 19.6l14.5 15.7 7.8 1.2c24 3.6 61.7 6.2 89.8 6.2 28.5 0 69.1-2.9 89.9-6.3l7-1.2 14.2-15.4 14.2-15.5.7-9c6.1-82.8 21.4-121.7 54.5-138.5 12.2-6.2 17.8-7.5 32-7.5 10.5.1 13.9.5 21.5 2.8 24.3 7.2 53.6 25.8 90.9 57.9l9 7.7h7c3.9 0 13.4.3 21.1.6l14 .6 15-11.7c45.7-35.5 86.6-75.6 117.1-114.9l8.6-11-.7-20.5c-.8-24 1.3-19.1-18.5-42.7-50.4-60-64.2-99.6-46.8-134.7 6-12 16.8-22.5 30.3-29.4 11-5.6 17.9-8.1 31.8-11.7 17.6-4.6 47.7-8.7 74.7-10.2 6.3-.3 12.7-1.2 14.2-1.9 1.4-.7 9.1-7.2 17.1-14.4 16.3-15 14.3-11 17.2-34.1 3.1-25.5 3.9-41.6 4-78 0-38-.8-52.1-4.5-82.3-1.1-8.6-2-15.9-2-16.1 0-.2-7.2-7-15.9-15-15.7-14.4-16-14.6-20.5-14.6-7.5 0-43.1-3.8-56.1-6-23.9-4.1-38.6-8.5-55-16.6-22.5-11-35-25.6-40.5-47.1-8.1-31.6 7.7-65.6 57.5-123.8l12-14 .7-14c.3-7.7.7-17.4.7-21.5v-7.5l-9-11.5c-34.2-43.7-76.3-85.1-122.1-119.9l-9.7-7.3-21.1.7-21 .8-12.8 10.9c-40 34.3-67.9 51.5-92.7 57.3-8.6 2-24.9 1.9-32.9-.1-10.1-2.5-21.8-8.9-29.5-16.1-23-21.2-34.1-57.1-39.6-128.5l-.7-8.7-13.9-15.3c-8.4-9.1-15-15.6-16.5-16-3-.8-37.2-5.3-51.9-6.8C672.1.9 624.5-.1 615 .6zm58.2 478.3c22.3 4.9 43.9 14.2 61.8 26.9 12.2 8.6 30.6 27 39.2 39.2 12.6 17.8 22 39.5 27 62.3 1.9 8.9 2.2 13.2 2.2 32.7 0 19.6-.3 23.8-2.2 32.7-4.9 22.5-14.5 44.7-27 62.3-8.5 12-27 30.6-38.7 38.8-22.3 15.8-48.2 25.8-75 29.3-13 1.7-41.4.6-53.7-2-58.6-12.6-105.9-54.2-124.2-109.2-6.5-19.4-8-29-8-51.4-.1-17.3.2-21.5 2.3-31.5 14.3-68.9 68-120.1 138-131.5 13-2.1 45.6-1.3 58.3 1.4z"/></svg><svg viewBox="0 0 511 511.9" id="instagram" xmlns="http://www.w3.org/2000/svg"><path d="M510.95 150.5c-1.2-27.2-5.598-45.898-11.9-62.102-6.5-17.199-16.5-32.597-29.6-45.398-12.802-13-28.302-23.102-45.302-29.5-16.296-6.3-34.898-10.7-62.097-11.898C334.648.3 325.949 0 256.449 0s-78.199.3-105.5 1.5c-27.199 1.2-45.898 5.602-62.097 11.898-17.204 6.5-32.602 16.5-45.403 29.602-13 12.8-23.097 28.3-29.5 45.3-6.3 16.302-10.699 34.9-11.898 62.098C.75 177.801.449 186.5.449 256s.301 78.2 1.5 105.5c1.2 27.2 5.602 45.898 11.903 62.102 6.5 17.199 16.597 32.597 29.597 45.398 12.801 13 28.301 23.102 45.301 29.5 16.3 6.3 34.898 10.7 62.102 11.898 27.296 1.204 36 1.5 105.5 1.5s78.199-.296 105.5-1.5c27.199-1.199 45.898-5.597 62.097-11.898a130.934 130.934 0 0074.903-74.898c6.296-16.301 10.699-34.903 11.898-62.102 1.2-27.3 1.5-36 1.5-105.5s-.102-78.2-1.3-105.5zm-46.098 209c-1.102 25-5.301 38.5-8.801 47.5-8.602 22.3-26.301 40-48.602 48.602-9 3.5-22.597 7.699-47.5 8.796-27 1.204-35.097 1.5-103.398 1.5s-76.5-.296-103.403-1.5c-25-1.097-38.5-5.296-47.5-8.796C94.551 451.5 84.45 445 76.25 436.5c-8.5-8.3-15-18.3-19.102-29.398-3.5-9-7.699-22.602-8.796-47.5-1.204-27-1.5-35.102-1.5-103.403s.296-76.5 1.5-103.398c1.097-25 5.296-38.5 8.796-47.5C61.25 94.199 67.75 84.1 76.352 75.898c8.296-8.5 18.296-15 29.398-19.097 9-3.5 22.602-7.7 47.5-8.801 27-1.2 35.102-1.5 103.398-1.5 68.403 0 76.5.3 103.403 1.5 25 1.102 38.5 5.3 47.5 8.8 11.097 4.098 21.199 10.598 29.398 19.098 8.5 8.301 15 18.301 19.102 29.403 3.5 9 7.699 22.597 8.8 47.5 1.2 27 1.5 35.097 1.5 103.398s-.3 76.301-1.5 103.301zm0 0"/><path d="M256.45 124.5c-72.598 0-131.5 58.898-131.5 131.5s58.902 131.5 131.5 131.5c72.6 0 131.5-58.898 131.5-131.5s-58.9-131.5-131.5-131.5zm0 216.8c-47.098 0-85.302-38.198-85.302-85.3s38.204-85.3 85.301-85.3c47.102 0 85.301 38.198 85.301 85.3s-38.2 85.3-85.3 85.3zm167.402-222c0 16.954-13.747 30.7-30.704 30.7-16.953 0-30.699-13.746-30.699-30.7 0-16.956 13.746-30.698 30.7-30.698 16.956 0 30.703 13.742 30.703 30.699zm0 0"/></svg><svg viewBox="0 0 512.005 512.005" id="loupe" xmlns="http://www.w3.org/2000/svg"><path d="M505.749 475.587l-145.6-145.6c28.203-34.837 45.184-79.104 45.184-127.317C405.333 90.926 314.41.003 202.666.003S0 90.925 0 202.669s90.923 202.667 202.667 202.667c48.213 0 92.48-16.981 127.317-45.184l145.6 145.6c4.16 4.16 9.621 6.251 15.083 6.251s10.923-2.091 15.083-6.251c8.341-8.341 8.341-21.824-.001-30.165zM202.667 362.669c-88.235 0-160-71.765-160-160s71.765-160 160-160 160 71.765 160 160-71.766 160-160 160z"/></svg><svg viewBox="0 0 30 30" id="mail" xmlns="http://www.w3.org/2000/svg"><path d="M25 27.5H5A2.5 2.5 0 012.5 25V11.31a2.539 2.539 0 011.214-2.04l10-6a2.5 2.5 0 012.571 0l10 6a2.514 2.514 0 011.215 2.145V25a2.5 2.5 0 01-2.5 2.5zM5 12.335V25h20V12.335L15 19 5 12.335zm10-6.92l-8.355 5.012L15 15.997l8.354-5.57L15 5.415z"/></svg><svg viewBox="0 0 512 512" id="maps" xmlns="http://www.w3.org/2000/svg"><path d="M256 0C153.755 0 70.573 83.182 70.573 185.426c0 126.888 165.939 313.167 173.004 321.035 6.636 7.391 18.222 7.378 24.846 0 7.065-7.868 173.004-194.147 173.004-321.035C441.425 83.182 358.244 0 256 0zm0 278.719c-51.442 0-93.292-41.851-93.292-93.293S204.559 92.134 256 92.134s93.291 41.851 93.291 93.293-41.85 93.292-93.291 93.292z"/></svg><svg viewBox="0 0 30 31" id="phone" xmlns="http://www.w3.org/2000/svg"><g clip-path="url(#kclip0_256_207)"><path d="M29.143 21.45l-6.563-2.812a1.407 1.407 0 00-1.64.404l-2.906 3.551A21.718 21.718 0 017.65 12.211l3.551-2.906a1.402 1.402 0 00.404-1.64L8.794 1.101A1.416 1.416 0 007.183.287L1.089 1.693a1.406 1.406 0 00-1.09 1.37c0 15.03 12.182 27.188 27.187 27.188a1.406 1.406 0 001.372-1.09l1.406-6.093a1.424 1.424 0 00-.821-1.617z"/></g><defs><clipPath id="kclip0_256_207"><path transform="translate(-.001 .252)" d="M0 0h30v30H0z"/></clipPath></defs></svg><svg viewBox="0 0 24 24" id="pinterest" xmlns="http://www.w3.org/2000/svg"><path d="M12.326 0C5.747.001 2.25 4.216 2.25 8.812c0 2.131 1.191 4.79 3.098 5.633.544.245.472-.054.94-1.844a.425.425 0 00-.102-.417c-2.726-3.153-.532-9.635 5.751-9.635 9.093 0 7.394 12.582 1.582 12.582-1.498 0-2.614-1.176-2.261-2.631.428-1.733 1.266-3.596 1.266-4.845 0-3.148-4.69-2.681-4.69 1.49 0 1.289.456 2.159.456 2.159S6.781 17.4 6.501 18.539c-.474 1.928.064 5.049.111 5.318.029.148.195.195.288.073.149-.195 1.973-2.797 2.484-4.678.186-.685.949-3.465.949-3.465.503.908 1.953 1.668 3.498 1.668 4.596 0 7.918-4.04 7.918-9.053C21.733 3.596 17.62 0 12.326 0z"/></svg><svg viewBox="0 0 24 24" id="star" xmlns="http://www.w3.org/2000/svg"><path d="M12 6.76l1.379 4.246h4.465l-3.612 2.625 1.379 4.246L12 15.252l-3.612 2.625 1.379-4.246-3.612-2.625h4.465L12 6.76zm0-6.472L9.167 9.006H0l7.416 5.389-2.833 8.718L12 17.725l7.416 5.388-2.833-8.718L24 9.006h-9.167L12 .288z"/></svg><svg viewBox="0 0 24 24" id="telegram" xmlns="http://www.w3.org/2000/svg"><path d="M9.417 15.181l-.397 5.584c.568 0 .814-.244 1.109-.537l2.663-2.545 5.518 4.041c1.012.564 1.725.267 1.998-.931L23.93 3.821l.001-.001c.321-1.496-.541-2.081-1.527-1.714l-21.29 8.151c-1.453.564-1.431 1.374-.247 1.741l5.443 1.693L18.953 5.78c.595-.394 1.136-.176.691.218z"/></svg><svg viewBox="0 0 30 31" id="tool" xmlns="http://www.w3.org/2000/svg"><path d="M29.363 23.184l-6.861-6.86a4.35 4.35 0 00-5.004-.815l-6.246-6.246V5.625L3.752 0 .003 3.75l5.626 7.5h3.638l6.246 6.245c-.797 1.629-.54 3.65.814 5.004l6.861 6.86a2.178 2.178 0 003.088 0l3.088-3.087c.85-.855.85-2.238 0-3.088zm-9.926-10.001c1.659 0 3.217.644 4.389 1.816l1.136 1.137a8.293 8.293 0 002.567-1.729 8.426 8.426 0 002.22-8.009.701.701 0 00-1.177-.322l-4.36 4.359-3.978-.662-.662-3.978 4.36-4.36a.707.707 0 00-.335-1.183 8.44 8.44 0 00-8.003 2.22c-1.67 1.67-2.455 3.873-2.414 6.07l4.81 4.81c.475-.11.967-.17 1.447-.17zm-6.087 4.804l-3.322-3.322-8.93 8.935a3.748 3.748 0 000 5.303 3.749 3.749 0 005.303 0l7.242-7.242c-.446-1.166-.58-2.438-.293-3.674zm-9.597 9.668a1.41 1.41 0 01-1.406-1.407c0-.779.626-1.406 1.406-1.406a1.407 1.407 0 010 2.812z"/></svg><svg viewBox="0 0 24 24" id="vk" xmlns="http://www.w3.org/2000/svg"><path d="M19.915 13.028c-.388-.49-.277-.708 0-1.146.005-.005 3.208-4.431 3.538-5.932l.002-.001c.164-.547 0-.949-.793-.949h-2.624c-.668 0-.976.345-1.141.731 0 0-1.336 3.198-3.226 5.271-.61.599-.892.791-1.225.791-.164 0-.419-.192-.419-.739V5.949c0-.656-.187-.949-.74-.949H9.161c-.419 0-.668.306-.668.591 0 .622.945.765 1.043 2.515v3.797c0 .832-.151.985-.486.985-.892 0-3.057-3.211-4.34-6.886-.259-.713-.512-1.001-1.185-1.001H.9c-.749 0-.9.345-.9.731 0 .682.892 4.073 4.148 8.553C6.318 17.343 9.374 19 12.154 19c1.671 0 1.875-.368 1.875-1.001 0-2.922-.151-3.198.686-3.198.388 0 1.056.192 2.616 1.667C19.114 18.217 19.407 19 20.405 19h2.624c.748 0 1.127-.368.909-1.094-.499-1.527-3.871-4.668-4.023-4.878z"/></svg><svg viewBox="0 0 512 512" id="writing" xmlns="http://www.w3.org/2000/svg"><path d="M503.22 186.828l-25.041-25.041c-11.697-11.698-30.729-11.696-42.427 0l-52.745 52.745V45c0-24.813-20.187-45-45-45h-293c-24.813 0-45 20.187-45 45v422c0 24.813 20.187 45 45 45h293c24.813 0 45-20.187 45-45V347.967L503.22 229.255c11.697-11.697 11.697-30.73 0-42.427zM323.821 364.251l-45.122 21.058 21.037-45.078 111.975-111.975 24.757 24.756zM353.007 467c0 8.271-6.729 15-15 15h-293c-8.271 0-15-6.729-15-15V45c0-8.271 6.729-15 15-15h293c8.271 0 15 6.729 15 15v199.532c-83.179 83.179-77.747 77.203-79.34 80.616l-39.598 84.854a15 15 0 0019.936 19.936l84.854-39.599c3.111-1.452 3.623-2.354 14.148-12.748zm104.806-235.067l-24.89-24.89L456.966 183l25.033 25.049z"/><path d="M80.007 127h224c8.284 0 15-6.716 15-15s-6.716-15-15-15h-224c-8.284 0-15 6.716-15 15s6.716 15 15 15zm0 80h176c8.284 0 15-6.716 15-15s-6.716-15-15-15h-176c-8.284 0-15 6.716-15 15s6.716 15 15 15zm128 50h-128c-8.284 0-15 6.716-15 15s6.716 15 15 15h128c8.284 0 15-6.716 15-15s-6.716-15-15-15z"/></svg></svg>