<svg width="1920" height="66" viewBox="0 0 1920 66" fill="none" xmlns="http://www.w3.org/2000/svg">
<path d="M0 66.5488L109 7.99995C175.4 7.99995 256 17.7949 384 26.1049C512 34.5412 439 51.5554 567 46.4999C695 41.4445 768 -39.4999 1124 26.1049C1250.5 6 1853.6 48.2227 1853.6 48.2227L1920 66.5488H1856C1792 66.5488 1664 66.5488 1536 66.5488C1408 66.5488 1280 66.5488 1152 66.5488C1024 66.5488 896 66.5488 768 66.5488C640 66.5488 512 66.5488 384 66.5488C256 66.5488 128 66.5488 64 66.5488H0Z" fill="#67949C"/>
</svg>
