<svg width="1309" height="727" viewBox="0 0 1309 727"  xmlns="http://www.w3.org/2000/svg">
<path d="M259.322 23.4999L279.038 46.9999L297.628 46.7999L316.218 46.5999L319.598 25.0999L322.978 3.5999H588.308C878.537 3.5999 859.834 3.2999 896.451 9.1999C984.331 23.4999 1075.03 62.5999 1151.64 119.2C1168.09 131.3 1197.05 156.3 1211.47 170.7C1248.2 207.5 1278.5 251.1 1293.15 288.6C1313.88 341.3 1314.22 386.3 1294.5 437.6C1265.55 512.5 1193.21 589.5 1099.81 644.8C1076.94 658.4 1063.31 665.4 1037.28 677.1C970.247 707.3 907.718 722.8 840.118 726.1C816.908 727.2 391.254 727.3 347.765 726.2L322.978 725.6L320.5 708.1C319.148 698.5 317.458 686.9 316.669 682.3L315.43 674.1H294.812H274.194L255.266 697.7L236.225 721.3L150.035 720.7C102.603 720.3 60.5781 719.8 56.6347 719.4C50.8887 719 48.7481 718.3 45.8187 715.9C25.7641 700.3 10.4415 625.7 3.5688 510.1C-1.38853 426.2 -1.1632 315.2 4.13213 218.6C10.6668 100.8 27.6794 15.8999 47.0581 4.6999C49.4241 3.2999 57.5361 2.8999 107.56 2.0999C139.219 1.5999 181.92 0.899897 202.425 0.599897L239.605 -0.000103153L259.322 23.4999Z"/>
</svg>
