<svg width="30" height="30" viewBox="0 0 30 30"  xmlns="http://www.w3.org/2000/svg">
<path d="M25 27.4997H5C4.33696 27.4997 3.70107 27.2363 3.23223 26.7675C2.76339 26.2986 2.5 25.6627 2.5 24.9997V11.3109C2.52078 10.8977 2.64222 10.4959 2.85376 10.1403C3.0653 9.7848 3.36053 9.48634 3.71375 9.27094L13.7137 3.27094C14.1021 3.03805 14.5465 2.91504 14.9994 2.91504C15.4522 2.91504 15.8966 3.03805 16.285 3.27094L26.285 9.27094C27.0362 9.72469 27.4975 10.5372 27.5 11.4147V24.9997C27.5 25.6627 27.2366 26.2986 26.7678 26.7675C26.2989 27.2363 25.663 27.4997 25 27.4997ZM5 12.3347V24.9997H25V12.3347L15 19.0009L5 12.3347ZM15 5.41469L6.645 10.4272L15 15.9972L23.3538 10.4272L15 5.41469V5.41469Z" />
</svg>
