<svg width="30" height="31" viewBox="0 0 30 31"  xmlns="http://www.w3.org/2000/svg">
<path d="M29.3626 23.1843L22.5017 16.3233C21.1482 14.9699 19.1269 14.7062 17.498 15.5089L11.2523 9.26316V5.62469L3.75272 0L0.00292948 3.74979L5.62762 11.2494H9.26609L15.5118 17.4951C14.715 19.1239 14.9728 21.1453 16.3262 22.4987L23.1872 29.3597C24.0426 30.2151 25.4253 30.2151 26.2749 29.3597L29.3626 26.272C30.2122 25.4166 30.2122 24.0338 29.3626 23.1843V23.1843ZM19.4374 13.1829C21.0955 13.1829 22.654 13.8274 23.8258 14.9992L24.9625 16.1358C25.8882 15.7315 26.7671 15.1691 27.5287 14.4074C29.7024 12.2337 30.4407 9.17527 29.7493 6.39808C29.6204 5.87077 28.9583 5.68914 28.5717 6.07583L24.2125 10.435L20.2342 9.77289L19.5722 5.7946L23.9313 1.43547C24.318 1.04877 24.1305 0.386697 23.5973 0.251939C20.8201 -0.43357 17.7617 0.304671 15.5939 2.47252C13.924 4.14235 13.1389 6.34535 13.1799 8.54249L17.9902 13.3528C18.4648 13.2414 18.957 13.1829 19.4374 13.1829ZM13.3498 17.9873L10.0278 14.6652L1.09857 23.6002C-0.366191 25.065 -0.366191 27.4379 1.09857 28.9027C2.56333 30.3674 4.93625 30.3674 6.40101 28.9027L13.6428 21.6609C13.1975 20.495 13.0627 19.2235 13.3498 17.9873V17.9873ZM3.75272 27.6547C2.97933 27.6547 2.34655 27.0219 2.34655 26.2485C2.34655 25.4693 2.97347 24.8424 3.75272 24.8424C4.53197 24.8424 5.15889 25.4693 5.15889 26.2485C5.15889 27.0219 4.53197 27.6547 3.75272 27.6547Z" />
</svg>
